<svg xmlns="http://www.w3.org/2000/svg" version="1.1" width="192px" height="192px" style="shape-rendering:geometricPrecision; text-rendering:geometricPrecision; image-rendering:optimizeQuality; fill-rule:evenodd; clip-rule:evenodd" xmlns:xlink="http://www.w3.org/1999/xlink">
<g><path style="opacity:0.125" fill="#f4c7a2" d="M 134.5,39.5 C 121.253,27.7558 108.419,15.4225 96,2.5C 83.5806,15.4225 70.7473,27.7558 57.5,39.5C 70.1314,26.3682 82.9647,13.3682 96,0.5C 109.035,13.3682 121.869,26.3682 134.5,39.5 Z"/></g>
<g><path style="opacity:1" fill="#e58d47" d="M 134.5,39.5 C 136.5,40.8333 138.167,42.5 139.5,44.5C 138.539,46.2646 138.205,48.2646 138.5,50.5C 130.112,50.7729 121.779,50.4396 113.5,49.5C 111.833,48.5 110.5,47.1667 109.5,45.5C 108.833,44.1667 107.833,43.1667 106.5,42.5C 103.527,38.806 100.194,35.306 96.5,32C 95.0922,31.6848 93.7589,32.0181 92.5,33C 91.2264,33.9772 91.2264,34.8106 92.5,35.5C 92.5,36.1667 92.1667,36.5 91.5,36.5C 86.8333,39.1667 83.1667,42.8333 80.5,47.5C 79.8333,48.8333 78.8333,49.8333 77.5,50.5C 77.1667,50.5 76.8333,50.5 76.5,50.5C 68.8333,50.5 61.1667,50.5 53.5,50.5C 53.7947,48.2646 53.4614,46.2646 52.5,44.5C 53.8333,42.5 55.5,40.8333 57.5,39.5C 70.7473,27.7558 83.5806,15.4225 96,2.5C 108.419,15.4225 121.253,27.7558 134.5,39.5 Z"/></g>
<g><path style="opacity:0.624" fill="#f2ddcd" d="M 106.5,42.5 C 102.765,40.2754 99.432,37.442 96.5,34C 94.9343,33.7003 93.601,34.2003 92.5,35.5C 91.2264,34.8106 91.2264,33.9772 92.5,33C 93.7589,32.0181 95.0922,31.6848 96.5,32C 100.194,35.306 103.527,38.806 106.5,42.5 Z"/></g>
<g><path style="opacity:0.498" fill="#f4dac7" d="M 91.5,36.5 C 88.8333,41.1667 85.1667,44.8333 80.5,47.5C 83.1667,42.8333 86.8333,39.1667 91.5,36.5 Z"/></g>
<g><path style="opacity:0.063" fill="#f2e8df" d="M 106.5,42.5 C 107.833,43.1667 108.833,44.1667 109.5,45.5C 107.5,45.5 106.5,44.5 106.5,42.5 Z"/></g>
<g><path style="opacity:1" fill="#dbaa84" d="M 52.5,44.5 C 53.4614,46.2646 53.7947,48.2646 53.5,50.5C 61.1667,50.5 68.8333,50.5 76.5,50.5C 68.6841,51.4924 60.6841,51.8257 52.5,51.5C 52.5,50.8333 52.1667,50.5 51.5,50.5C 51.2053,48.2646 51.5386,46.2646 52.5,44.5 Z"/></g>
<g><path style="opacity:1" fill="#f4c8a4" d="M 139.5,44.5 C 140.461,46.2646 140.795,48.2646 140.5,50.5C 139.833,50.8333 139.167,51.1667 138.5,51.5C 138.5,51.1667 138.5,50.8333 138.5,50.5C 138.205,48.2646 138.539,46.2646 139.5,44.5 Z"/></g>
<g><path style="opacity:1" fill="#c48d58" d="M 113.5,49.5 C 121.779,50.4396 130.112,50.7729 138.5,50.5C 138.5,50.8333 138.5,51.1667 138.5,51.5C 130.833,51.5 123.167,51.5 115.5,51.5C 114.5,51.1667 113.833,50.5 113.5,49.5 Z"/></g>
<g><path style="opacity:1" fill="#4e81b7" d="M 76.5,50.5 C 76.8333,50.5 77.1667,50.5 77.5,50.5C 76.2427,53.4274 74.2427,55.7607 71.5,57.5C 65.8607,61.1393 61.194,65.806 57.5,71.5C 56.8333,72.8333 55.8333,73.8333 54.5,74.5C 53.1526,73.9717 51.8193,73.805 50.5,74C 49.5467,75.9552 48.2134,77.6218 46.5,79C 47.2524,79.6708 47.5858,80.5041 47.5,81.5C 42.9177,84.9006 38.4177,88.5673 34,92.5C 33.2599,93.7494 33.4265,94.7494 34.5,95.5C 36.8333,99.8333 40.1667,103.167 44.5,105.5C 44.8333,107.833 46.1667,109.167 48.5,109.5C 48.369,110.239 48.5357,110.906 49,111.5C 55.0899,118.096 61.5899,124.096 68.5,129.5C 68.8333,131.833 70.1667,133.167 72.5,133.5C 73.075,135.411 74.075,137.078 75.5,138.5C 68.1667,138.5 60.8333,138.5 53.5,138.5C 51.369,137.686 49.0356,137.186 46.5,137C 32.5,123 18.5,109 4.5,95C 18.5,81 32.5,67 46.5,53C 48.7078,52.8091 50.7078,52.3091 52.5,51.5C 60.6841,51.8257 68.6841,51.4924 76.5,50.5 Z"/></g>
<g><path style="opacity:1" fill="#77a797" d="M 140.5,50.5 C 145.567,49.8947 149.234,51.8947 151.5,56.5C 163.244,69.7473 175.578,82.5806 188.5,95C 176.577,106.42 165.244,118.253 154.5,130.5C 151.45,135.579 147.117,138.579 141.5,139.5C 133.579,138.367 125.579,138.2 117.5,139C 116.956,139.717 116.289,140.217 115.5,140.5C 115.229,138.62 115.896,137.287 117.5,136.5C 124.888,131.112 131.221,124.779 136.5,117.5C 144.812,111.188 152.146,103.854 158.5,95.5C 157.25,93.8459 155.916,92.1793 154.5,90.5C 154.631,89.7611 154.464,89.0944 154,88.5C 147.813,82.7204 141.647,77.0537 135.5,71.5C 133.089,70.483 131.422,68.8163 130.5,66.5C 130.013,65.5266 129.513,64.5266 129,63.5C 124.929,60.25 121.096,56.9167 117.5,53.5C 116.5,53.1667 115.833,52.5 115.5,51.5C 123.167,51.5 130.833,51.5 138.5,51.5C 139.167,51.1667 139.833,50.8333 140.5,50.5 Z"/></g>
<g><path style="opacity:0.063" fill="#d2dbd4" d="M 117.5,53.5 C 121.096,56.9167 124.929,60.25 129,63.5C 129.513,64.5266 130.013,65.5266 130.5,66.5C 125.188,63.1879 120.855,58.8546 117.5,53.5 Z"/></g>
<g><path style="opacity:0.439" fill="#c9d7e6" d="M 71.5,57.5 C 67.8121,63.1879 63.1454,67.8546 57.5,71.5C 61.194,65.806 65.8607,61.1393 71.5,57.5 Z"/></g>
<g><path style="opacity:1" fill="#c2d8d1" d="M 151.5,56.5 C 164.632,69.1314 177.632,81.9647 190.5,95C 178.632,107.035 166.632,118.869 154.5,130.5C 165.244,118.253 176.577,106.42 188.5,95C 175.578,82.5806 163.244,69.7473 151.5,56.5 Z"/></g>
<g><path style="opacity:1" fill="#82a2ca" d="M 54.5,74.5 C 52.5,77.1667 50.1667,79.5 47.5,81.5C 47.5858,80.5041 47.2524,79.6708 46.5,79C 48.2134,77.6218 49.5467,75.9552 50.5,74C 51.8193,73.805 53.1526,73.9717 54.5,74.5 Z"/></g>
<g><path style="opacity:0.561" fill="#cddbe9" d="M 47.5,81.5 C 43.8451,86.8206 39.5118,91.4873 34.5,95.5C 33.4265,94.7494 33.2599,93.7494 34,92.5C 38.4177,88.5673 42.9177,84.9006 47.5,81.5 Z"/></g>
<g><path style="opacity:0.561" fill="#d5e2dd" d="M 135.5,71.5 C 141.647,77.0537 147.813,82.7204 154,88.5C 154.464,89.0944 154.631,89.7611 154.5,90.5C 153.761,90.631 153.094,90.4643 152.5,90C 146.477,84.0859 140.81,77.9192 135.5,71.5 Z"/></g>
<g><path style="opacity:0.937" fill="#b0c8e0" d="M 51.5,50.5 C 52.1667,50.5 52.5,50.8333 52.5,51.5C 50.7078,52.3091 48.7078,52.8091 46.5,53C 32.5,67 18.5,81 4.5,95C 18.5,109 32.5,123 46.5,137C 49.0356,137.186 51.369,137.686 53.5,138.5C 52.8333,138.5 52.5,138.833 52.5,139.5C 50.4727,139.662 48.4727,139.495 46.5,139C 31.8333,124.333 17.1667,109.667 2.5,95C 17.1667,80.3333 31.8333,65.6667 46.5,51C 48.1341,50.5065 49.8008,50.3398 51.5,50.5 Z"/></g>
<g><path style="opacity:1" fill="#c7d6e7" d="M 34.5,95.5 C 36.671,97.5002 39.0043,99.3335 41.5,101C 43.1412,102.129 44.1412,103.629 44.5,105.5C 40.1667,103.167 36.8333,99.8333 34.5,95.5 Z"/></g>
<g><path style="opacity:0.498" fill="#c9dbd4" d="M 158.5,95.5 C 152.146,103.854 144.812,111.188 136.5,117.5C 139.831,114 142.998,110.334 146,106.5C 149.761,102.23 153.928,98.5633 158.5,95.5 Z"/></g>
<g><path style="opacity:0.498" fill="#cad7e7" d="M 44.5,105.5 C 46.5,106.167 47.8333,107.5 48.5,109.5C 47.8333,107.5 46.5,106.167 44.5,105.5 Z"/></g>
<g><path style="opacity:0.937" fill="#c2d2e4" d="M 48.5,109.5 C 55.5751,115.908 62.2418,122.575 68.5,129.5C 61.5899,124.096 55.0899,118.096 49,111.5C 48.5357,110.906 48.369,110.239 48.5,109.5 Z"/></g>
<g><path style="opacity:0.561" fill="#cadbd5" d="M 136.5,117.5 C 131.221,124.779 124.888,131.112 117.5,136.5C 122.833,129.167 129.167,122.833 136.5,117.5 Z"/></g>
<g><path style="opacity:0.498" fill="#c7d5e4" d="M 68.5,129.5 C 70.5,130.167 71.8333,131.5 72.5,133.5C 71.8333,131.5 70.5,130.167 68.5,129.5 Z"/></g>
<g><path style="opacity:0.937" fill="#bdcde0" d="M 72.5,133.5 C 74.914,134.911 76.5806,136.911 77.5,139.5C 76.8333,139.167 76.1667,138.833 75.5,138.5C 74.075,137.078 73.075,135.411 72.5,133.5 Z"/></g>
<g><path style="opacity:1" fill="#eac77f" d="M 53.5,138.5 C 60.8333,138.5 68.1667,138.5 75.5,138.5C 76.1667,138.833 76.8333,139.167 77.5,139.5C 80.5483,141.882 83.2149,144.548 85.5,147.5C 87.4517,150.118 89.785,152.452 92.5,154.5C 94.1667,155.833 95.8333,157.167 97.5,158.5C 103.5,154.5 108.5,149.5 112.5,143.5C 113.167,142.167 114.167,141.167 115.5,140.5C 116.289,140.217 116.956,139.717 117.5,139C 125.579,138.2 133.579,138.367 141.5,139.5C 141.5,141.833 141.5,144.167 141.5,146.5C 133.555,152.776 126.222,159.776 119.5,167.5C 111.444,174.555 104.11,182.221 97.5,190.5C 97.1667,190.5 96.8333,190.5 96.5,190.5C 83.0884,175.586 69.0884,161.086 54.5,147C 53.9056,146.536 53.2389,146.369 52.5,146.5C 52.5,144.167 52.5,141.833 52.5,139.5C 52.5,138.833 52.8333,138.5 53.5,138.5 Z"/></g>
<g><path style="opacity:0.561" fill="#f2ede3" d="M 85.5,147.5 C 88.8553,148.855 91.1886,151.189 92.5,154.5C 89.785,152.452 87.4517,150.118 85.5,147.5 Z"/></g>
<g><path style="opacity:0.624" fill="#eee3d1" d="M 112.5,143.5 C 108.5,149.5 103.5,154.5 97.5,158.5C 101.5,152.5 106.5,147.5 112.5,143.5 Z"/></g>
<g><path style="opacity:0.188" fill="#fbf9f1" d="M 141.5,146.5 C 134.778,154.224 127.445,161.224 119.5,167.5C 126.222,159.776 133.555,152.776 141.5,146.5 Z"/></g>
<g><path style="opacity:1" fill="#fbf7ec" d="M 52.5,146.5 C 53.2389,146.369 53.9056,146.536 54.5,147C 69.0884,161.086 83.0884,175.586 96.5,190.5C 81.5,176.167 66.8333,161.5 52.5,146.5 Z"/></g>
<g><path style="opacity:0.188" fill="#fbf8f0" d="M 119.5,167.5 C 112.89,175.779 105.556,183.445 97.5,190.5C 104.11,182.221 111.444,174.555 119.5,167.5 Z"/></g>
</svg>
